<svg id="svg" version="1.1" width="400" height="250" viewBox="0 0 400 250" xmlns="http://www.w3.org/2000/svg" xmlns:xlink="http://www.w3.org/1999/xlink" ><g id="svgg"><path id="path0" d="M398.875 44.052 C 398.462 44.197,397.956 44.449,397.750 44.612 C 397.544 44.775,396.306 45.390,395.000 45.978 C 393.694 46.566,392.569 47.121,392.500 47.211 C 392.431 47.301,391.508 47.800,390.449 48.318 C 389.390 48.837,388.371 49.415,388.184 49.602 C 387.997 49.789,387.401 50.181,386.859 50.474 C 385.110 51.418,384.392 51.862,383.476 52.563 C 382.982 52.941,382.497 53.250,382.397 53.250 C 382.202 53.250,380.532 54.457,380.125 54.892 C 379.988 55.040,379.546 55.364,379.144 55.614 C 378.329 56.121,374.199 59.348,373.371 60.125 C 373.078 60.400,372.118 61.244,371.239 62.000 C 369.431 63.554,363.619 69.330,362.168 71.014 C 361.642 71.625,360.768 72.631,360.227 73.250 C 358.548 75.170,354.523 80.659,353.500 82.423 C 353.156 83.016,352.678 83.727,352.438 84.004 C 352.197 84.280,352.000 84.552,352.000 84.610 C 352.000 84.735,349.733 88.075,348.940 89.118 C 344.164 95.402,334.582 105.139,333.707 104.599 C 333.593 104.528,333.500 104.582,333.500 104.718 C 333.500 105.415,323.590 111.332,321.500 111.884 C 321.431 111.902,321.038 112.062,320.625 112.239 C 317.549 113.561,310.910 115.242,307.250 115.627 C 306.494 115.706,305.369 115.832,304.750 115.907 C 302.943 116.124,296.727 116.159,294.330 115.966 C 290.932 115.691,284.630 114.860,284.273 114.639 C 284.169 114.575,283.699 114.450,283.229 114.363 C 282.100 114.153,281.625 114.046,281.625 114.002 C 281.625 113.982,279.994 113.579,278.000 113.105 C 273.585 112.056,273.940 112.151,273.563 111.916 C 273.391 111.808,273.250 111.777,273.250 111.847 C 273.250 111.916,272.716 111.820,272.063 111.633 C 271.409 111.445,270.369 111.213,269.750 111.117 C 269.131 111.020,268.400 110.898,268.125 110.846 C 267.850 110.794,266.387 110.581,264.875 110.373 C 263.363 110.164,261.731 109.934,261.250 109.860 C 258.250 109.403,250.977 109.224,248.250 109.540 C 243.737 110.063,236.544 111.481,235.875 111.979 C 235.738 112.082,234.725 112.483,233.625 112.871 C 232.525 113.259,231.063 113.862,230.375 114.211 C 229.688 114.560,229.012 114.866,228.875 114.892 C 228.738 114.917,228.052 115.277,227.351 115.690 C 226.650 116.104,225.834 116.519,225.538 116.613 C 225.242 116.707,225.000 116.883,225.000 117.005 C 225.000 117.127,224.633 117.401,224.185 117.613 C 223.737 117.826,223.062 118.286,222.685 118.635 C 222.308 118.984,222.000 119.188,222.000 119.088 C 222.000 118.988,221.771 119.152,221.490 119.453 C 221.210 119.754,220.864 120.000,220.722 120.000 C 220.456 120.000,219.619 120.734,219.783 120.824 C 219.833 120.852,260.403 120.847,309.938 120.812 L 400.000 120.749 400.000 82.249 C 400.000 61.075,399.916 43.759,399.813 43.770 C 399.709 43.781,399.288 43.908,398.875 44.052 " stroke="none" fill="#fc8192" fill-rule="evenodd"></path><path id="path1" d="M97.157 187.198 C 97.090 187.307,97.421 187.350,97.893 187.295 C 98.364 187.240,98.750 187.151,98.750 187.098 C 98.750 186.910,97.278 187.002,97.157 187.198 M21.688 196.922 C 21.447 196.985,21.250 197.145,21.250 197.277 C 21.250 197.416,21.489 197.393,21.813 197.225 C 22.750 196.737,22.716 196.654,21.688 196.922 M16.000 199.375 C 15.656 199.572,15.488 199.732,15.625 199.732 C 15.762 199.732,16.156 199.572,16.500 199.375 C 16.844 199.178,17.012 199.018,16.875 199.018 C 16.738 199.018,16.344 199.178,16.000 199.375 M7.667 203.865 C 7.140 204.178,6.521 204.635,6.292 204.880 C 5.754 205.456,7.639 204.396,8.368 203.712 C 8.991 203.128,8.862 203.156,7.667 203.865 M3.918 206.394 C 2.976 207.034,2.830 207.505,3.516 207.691 C 3.808 207.770,3.805 207.739,3.500 207.523 C 3.161 207.283,3.314 207.140,3.819 207.223 C 3.926 207.240,4.088 207.057,4.179 206.815 C 4.270 206.573,4.520 206.238,4.735 206.070 C 5.446 205.516,4.882 205.739,3.918 206.394 M1.272 208.506 L 0.000 209.512 0.000 229.756 L 0.000 250.000 200.000 250.000 L 400.000 250.000 400.000 229.250 L 400.000 208.500 201.520 208.500 C 10.357 208.500,2.080 208.478,2.394 207.970 C 2.471 207.844,2.657 207.817,2.806 207.910 C 2.968 208.010,3.005 207.961,2.899 207.789 C 2.656 207.396,2.704 207.375,1.272 208.506 " stroke="none" fill="#fc444d" fill-rule="evenodd"></path><path id="path2" d="M175.500 171.375 C 174.893 171.994,174.457 172.500,174.532 172.500 C 174.606 172.500,175.181 171.994,175.809 171.375 C 176.436 170.756,176.872 170.250,176.777 170.250 C 176.682 170.250,176.107 170.756,175.500 171.375 M171.500 174.705 C 170.881 175.226,169.813 175.974,169.125 176.367 C 168.438 176.760,167.819 177.164,167.750 177.264 C 167.462 177.682,161.690 180.323,159.257 181.150 C 157.809 181.641,156.435 182.142,156.203 182.264 C 155.644 182.556,147.532 184.166,145.625 184.362 C 144.800 184.447,143.844 184.620,143.500 184.746 C 142.883 184.972,135.473 185.614,130.625 185.862 C 124.950 186.152,122.874 186.237,112.125 186.627 C 105.852 186.854,101.361 187.048,99.875 187.155 C 99.050 187.214,96.294 187.367,93.750 187.494 C 84.773 187.943,83.334 188.018,79.125 188.262 C 70.559 188.757,62.453 189.356,60.375 189.646 C 59.962 189.703,57.375 189.967,54.625 190.231 C 48.084 190.859,41.908 191.684,40.500 192.115 C 39.881 192.305,38.362 192.639,37.125 192.857 C 33.607 193.476,24.979 195.860,22.625 196.863 C 22.075 197.097,20.781 197.602,19.750 197.986 C 17.647 198.767,12.420 201.274,12.292 201.563 C 12.246 201.666,12.055 201.750,11.867 201.750 C 11.679 201.750,11.025 202.088,10.414 202.500 C 9.803 202.912,9.192 203.250,9.057 203.250 C 8.922 203.250,8.683 203.404,8.526 203.593 C 8.370 203.782,7.343 204.479,6.246 205.143 C 5.148 205.807,4.250 206.489,4.250 206.660 C 4.250 206.831,4.120 207.051,3.961 207.149 C 3.765 207.270,3.741 207.214,3.884 206.976 C 4.065 206.677,4.032 206.677,3.661 206.978 C 3.315 207.259,3.293 207.379,3.551 207.564 C 3.780 207.729,3.737 207.752,3.406 207.644 C 2.795 207.445,2.076 207.985,2.551 208.287 C 2.729 208.400,92.228 208.494,201.438 208.496 L 400.000 208.500 400.000 192.250 L 400.000 176.000 285.508 176.000 C 184.935 176.000,171.033 175.955,171.157 175.633 C 171.234 175.431,171.427 175.290,171.586 175.320 C 171.745 175.350,171.847 175.234,171.813 175.063 C 171.778 174.891,171.863 174.736,172.000 174.719 C 172.137 174.702,172.357 174.673,172.488 174.656 C 172.618 174.639,172.871 174.468,173.050 174.276 C 173.238 174.073,173.253 173.995,173.084 174.090 C 172.924 174.180,172.755 174.142,172.709 174.005 C 172.663 173.869,172.119 174.184,171.500 174.705 " stroke="none" fill="#fc5966" fill-rule="evenodd"></path><path id="path3" d="M284.271 114.590 C 284.328 114.639,284.712 114.755,285.125 114.847 C 285.673 114.970,285.774 114.947,285.500 114.761 C 285.162 114.533,284.020 114.373,284.271 114.590 M298.813 116.172 C 299.053 116.235,299.447 116.235,299.688 116.172 C 299.928 116.109,299.731 116.058,299.250 116.058 C 298.769 116.058,298.572 116.109,298.813 116.172 M221.813 118.819 C 220.569 119.578,220.191 120.000,220.752 120.000 C 220.891 120.000,221.193 119.781,221.422 119.513 C 221.651 119.245,221.903 119.062,221.982 119.106 C 222.061 119.150,222.404 118.919,222.745 118.593 C 223.559 117.813,223.391 117.854,221.813 118.819 M218.872 120.935 C 215.104 123.653,208.950 129.411,204.908 134.000 C 203.515 135.581,202.317 136.931,202.244 137.000 C 202.172 137.069,201.500 137.912,200.750 138.875 C 200.000 139.838,199.310 140.681,199.217 140.750 C 199.124 140.819,198.625 141.494,198.108 142.250 C 197.592 143.006,197.092 143.681,196.998 143.750 C 196.904 143.819,196.284 144.662,195.621 145.625 C 194.957 146.588,194.150 147.646,193.827 147.977 C 193.504 148.308,193.174 148.842,193.093 149.164 C 193.012 149.486,192.853 149.750,192.740 149.750 C 192.626 149.750,192.469 149.954,192.390 150.203 C 192.311 150.453,191.840 151.100,191.343 151.641 C 190.590 152.463,190.514 152.639,190.882 152.713 C 191.240 152.784,191.257 152.842,190.974 153.021 C 190.772 153.150,234.634 153.244,295.313 153.246 L 400.000 153.250 400.000 136.999 L 400.000 120.748 309.875 120.811 C 260.306 120.846,219.750 120.800,219.750 120.708 C 219.750 120.617,219.891 120.491,220.063 120.430 C 220.234 120.369,220.317 120.255,220.247 120.177 C 220.177 120.099,219.558 120.440,218.872 120.935 " stroke="none" fill="#fc6f7d" fill-rule="evenodd"></path><path id="path4" d="M191.851 150.688 C 191.343 151.453,191.169 152.080,191.526 151.859 C 191.654 151.780,191.693 151.611,191.614 151.483 C 191.535 151.355,191.572 151.250,191.695 151.250 C 191.819 151.250,192.048 150.969,192.205 150.625 C 192.579 149.803,192.420 149.831,191.851 150.688 M190.047 153.375 C 189.748 153.719,189.587 154.002,189.689 154.004 C 189.791 154.006,189.750 154.090,189.597 154.191 C 189.444 154.292,188.799 155.162,188.165 156.125 C 185.794 159.720,184.045 162.094,181.177 165.608 C 179.114 168.137,174.051 173.179,173.693 173.063 C 173.587 173.028,173.500 173.169,173.500 173.375 C 173.500 173.581,173.331 173.750,173.125 173.750 C 172.919 173.750,172.750 173.869,172.750 174.015 C 172.750 174.160,172.891 174.195,173.063 174.092 C 173.282 173.960,173.275 174.027,173.039 174.319 C 172.853 174.547,172.628 174.724,172.539 174.712 C 172.046 174.647,171.757 174.786,171.813 175.063 C 171.847 175.234,171.745 175.350,171.586 175.320 C 171.427 175.290,171.234 175.431,171.157 175.633 C 171.033 175.955,184.935 176.000,285.508 176.000 L 400.000 176.000 400.000 164.625 L 400.000 153.250 295.313 153.246 C 227.633 153.244,190.758 153.157,191.000 153.000 C 191.329 152.787,191.327 152.757,190.983 152.754 C 190.767 152.752,190.346 153.031,190.047 153.375 " stroke="none" fill="#fc6474" fill-rule="evenodd"></path></g></svg>